<svg xmlns="http://www.w3.org/2000/svg" xmlns:xlink="http://www.w3.org/1999/xlink" x="0px" y="0px" viewBox="0 0 1000 1000" xml:space="preserve"><g transform="translate(0.000000,511.000000) scale(0.100000,-0.100000)" fill="#ccc"><path d="M8263.7,4519.7c-28.4-35.5-113.7-195.3-188.2-358.7c-117.2-252.2-131.4-305.4-95.9-380c28.4-63.9,67.5-88.8,142.1-88.8c117.2,0,202.5,78.1,259.3,245.1l39.1,113.7l78.1-71c95.9-88.8,209.5-95.9,284.1-17.8c88.8,88.8,67.5,166.9-110.1,401.3C8491,4597.9,8370.2,4644.1,8263.7,4519.7z"/><path d="M8874.6,3802.3c-92.3-174,3.5-287.7,238-287.7h159.8l-56.9-88.8c-78.1-120.7-71-191.8,49.7-447.5c56.8-124.3,99.4-230.9,92.3-238c-7.1-7.1-74.6,3.5-152.7,24.9c-213.1,60.4-305.4,46.2-436.9-67.5c-67.5-56.8-135-103-145.6-106.6c-14.2,0-32,49.7-46.2,113.7c-46.2,230.9-252.2,323.2-355.2,159.8c-49.7-71-46.2-110.1,32-397.8c131.4-472.4,206-504.4,543.4-227.3l220.2,181.1l301.9-74.6c646.4-159.8,710.3-74.6,404.9,532.8l-177.6,358.7l124.3,191.8c131.4,198.9,159.8,323.2,85.2,397.8c-28.4,28.4-177.6,42.6-444,42.6C8952.7,3869.8,8910.1,3862.7,8874.6,3802.3z"/><path d="M6182.4,3361.9l-301.9-298.4l-277.1,120.8c-152.7,67.5-433.3,163.4-625.1,213.1c-298.3,78.1-426.2,92.3-898.6,95.9c-582.5,3.5-774.3-24.9-1260.9-181.2c-618-198.9-1129.4-522.1-1605.4-1015.8c-362.3-376.5-515-596.7-738.7-1062C144.4,552.5,20.1-342.5,151.5-1092c266.4-1527.2,1402.9-2770.4,2891.1-3161c458.2-120.7,1193.4-149.1,1665.8-67.5c2347.7,408.5,3811,2802.3,3093.6,5064.7c-60.4,184.7-145.6,412-191.8,500.8l-81.7,163.4l301.9,298.4c223.8,220.2,298.3,319.7,298.3,390.7c0,95.9-117.2,280.6-383.6,593.1c-149.2,177.6-156.3,191.8-92.4,238c259.3,198.9,639.3,273.5,902.2,181.2c280.6-99.5,390.7-60.4,390.7,127.8c0,88.8-24.9,113.7-184.7,188.2c-369.4,170.5-905.7,103-1275-166.9c-99.5-71-166.9-99.4-195.4-78.1c-24.9,17.8-174,131.4-333.9,255.7c-181.2,138.5-323.2,220.2-380,220.2C6509.1,3656.7,6402.6,3578.5,6182.4,3361.9z M4044.2,2697.7c170.5-170.5,39.1-301.9-341-330.3c-532.8-42.6-1054.8-259.3-1470.4-610.9c-238-206-316.1-230.9-404.9-138.5c-106.6,103-67.5,209.5,142.1,404.9c479.5,436.9,1186.3,713.9,1889.5,742.3C3930.6,2768.8,3998,2743.9,4044.2,2697.7z"/></g>
</svg>
